HIERARCHY
ROOT hip
{
	OFFSET 0.000000 0.000000 0.000000 
	CHANNELS 6 Xposition Yposition Zposition Xrotation Zrotation Yrotation
	JOINT abdomen
	{
		OFFSET 0.000000 3.402643 0.000000 
		CHANNELS 3 Xrotation Zrotation Yrotation
		JOINT chest
		{
			OFFSET 0.000000 8.438565 -0.680529 
			CHANNELS 3 Xrotation Zrotation Yrotation
			JOINT neck
			{
				OFFSET 0.000000 10.207942 -0.272212 
				CHANNELS 3 Xrotation Zrotation Yrotation
				JOINT head
				{
					OFFSET 0.000000 3.130431 0.000000 
					CHANNELS 3 Xrotation Zrotation Yrotation
					End Site
					{
						OFFSET 0.000000 3.130435 0.000000 
					}
				}
			}
			JOINT lCollar
			{
				OFFSET 3.470700 6.669187 -0.816635 
				CHANNELS 3 Yrotation Zrotation Xrotation
				JOINT lShldr
				{
					OFFSET 3.198488 0.000000 0.000000 
					CHANNELS 3 Zrotation Yrotation Xrotation
					JOINT lForeArm
					{
						OFFSET 10.139888 0.000000 0.000000 
						CHANNELS 3 Yrotation Zrotation Xrotation
						JOINT lHand
						{
							OFFSET 8.370511 0.000000 0.000000 
							CHANNELS 3 Zrotation Yrotation Xrotation
							End Site
							{
								OFFSET 4.083176 0.000000 0.000000 
							}
						}
					}
				}
			}
			JOINT rCollar
			{
				OFFSET -3.470700 6.669187 -0.816635 
				CHANNELS 3 Yrotation Zrotation Xrotation
				JOINT rShldr
				{
					OFFSET -3.198488 0.000000 0.000000 
					CHANNELS 3 Zrotation Yrotation Xrotation
					JOINT rForeArm
					{
						OFFSET -10.139888 0.000000 0.000000 
						CHANNELS 3 Yrotation Zrotation Xrotation
						JOINT rHand
						{
							OFFSET -8.370511 0.000000 0.000000 
							CHANNELS 3 Zrotation Yrotation Xrotation
							End Site
							{
								OFFSET -4.083176 0.000000 0.000000 
							}
						}
					}
				}
			}
		}
	}
	JOINT lThigh
	{
		OFFSET 5.308129 -1.633274 1.361059 
		CHANNELS 3 Xrotation Zrotation Yrotation
		JOINT lShin
		{
			OFFSET -2.041588 -20.007561 0.000000 
			CHANNELS 3 Xrotation Zrotation Yrotation
			JOINT lFoot
			{
				OFFSET 0.000000 -19.190928 -1.224953 
				CHANNELS 3 Xrotation Yrotation Zrotation
				End Site
				{
					OFFSET 0.000000 -2.449906 4.627600 
				}
			}
		}
	}
	JOINT rThigh
	{
		OFFSET -5.308129 -1.633274 1.361059 
		CHANNELS 3 Xrotation Zrotation Yrotation
		JOINT rShin
		{
			OFFSET 2.041588 -20.007561 0.000000 
			CHANNELS 3 Xrotation Zrotation Yrotation
			JOINT rFoot
			{
				OFFSET 0.000000 -19.190928 -1.224953 
				CHANNELS 3 Xrotation Yrotation Zrotation
				End Site
				{
					OFFSET 0.000000 -2.449906 4.627600 
				}
			}
		}
	}
}
MOTION
Frames: 15
Frame Time: 0.016667
0.105495 50.858379 -0.108709 -10.396457 4.882664 12.468341 29.723764 6.577649 6.596666 22.203278 4.227041 4.181592 -8.457032 0.000000 0.000000 19.836885 -6.470145 28.645657 -2.812533 -0.096698 -0.019508 -52.075340 13.464438 8.651760 -51.595524 -43.449966 5.220379 -9.944384 -50.685158 53.479095 2.792995 0.077173 -0.019521 55.405174 -18.037823 20.206263 48.934601 28.407015 7.370037 -14.578710 71.461586 50.610619 -1.063382 3.888814 10.138721 12.014239 6.820431 3.490916 6.219619 -4.788225 -7.025383 14.739077 -4.764668 -19.007845 5.987592 2.998937 -1.425354 -10.499314 -5.301786 -4.114485 
0.108042 50.859394 -0.108660 -10.396457 4.882664 12.468341 29.723764 6.577649 6.596666 22.203278 4.227041 4.181592 -8.457032 0.000000 0.000000 19.752731 -6.387398 28.591763 -2.812533 -0.096698 -0.019508 -52.075340 13.464438 8.651760 -51.595524 -43.449966 5.220379 -9.944289 -50.681969 53.399467 2.792995 0.077173 -0.019521 55.401981 -18.034779 20.298189 48.946949 28.408138 7.274979 -14.572463 71.465317 50.518761 -1.063382 3.888814 10.138721 12.014240 6.820429 3.490916 6.219621 -4.788225 -7.025383 14.739076 -4.764668 -19.007845 5.987592 2.998938 -1.425354 -10.462849 -5.194112 -4.070206 
0.109709 50.860081 -0.108678 -10.396457 4.882664 12.468341 29.723764 6.577649 6.596666 22.291174 4.217249 4.191331 -8.457032 0.000000 0.000000 19.658785 -6.388830 28.423820 -2.812533 -0.096698 -0.019508 -52.075340 13.464438 8.651760 -51.595524 -43.449966 5.220379 -10.036167 -50.600510 53.387825 2.792995 0.077173 -0.019521 55.401981 -18.034779 20.298189 48.946949 28.408138 7.274979 -14.572463 71.465317 50.518761 -1.063535 3.889743 10.237022 12.025171 6.821005 3.491069 6.226297 -4.752233 -7.033696 14.739076 -4.764667 -19.007843 5.987592 2.998938 -1.425354 -10.462850 -5.194112 -4.070206 
0.111372 50.860764 -0.108695 -10.396457 4.882664 12.468341 29.723764 6.577649 6.596666 22.379065 4.217249 4.191331 -8.457032 0.000000 0.000000 19.574585 -6.390183 28.256956 -2.812533 -0.096698 -0.019508 -52.075340 13.464438 8.651760 -51.595524 -43.449966 5.220379 -10.139810 -50.517532 53.397324 2.792995 0.077173 -0.019521 55.401981 -18.034779 20.298189 48.946949 28.408138 7.274979 -14.572463 71.465317 50.518761 -1.063759 3.881169 10.324943 12.025169 6.821012 3.491070 6.240613 -4.740547 -7.028675 14.739076 -4.764667 -19.007845 5.987592 2.998937 -1.425354 -10.462850 -5.194111 -4.070205 
0.112598 50.861214 -0.108634 -10.378260 4.968668 12.460299 29.723764 6.577649 6.596666 22.380987 4.139487 4.161398 -8.457032 0.000000 0.000000 19.481079 -6.307611 28.193432 -2.812533 -0.096698 -0.019508 -52.075340 13.464438 8.651760 -51.595524 -43.449966 5.220379 -10.139810 -50.517532 53.397324 2.792995 0.077173 -0.019521 55.403076 -17.951799 20.294056 48.946949 28.408138 7.274979 -14.572463 71.465317 50.518761 -1.063760 3.881166 10.324943 12.025169 6.821005 3.491070 6.185677 -4.797173 -7.050457 14.739076 -4.764664 -19.007843 6.000342 3.000584 -1.512436 -10.438120 -5.184723 -4.150156 
0.113818 50.861664 -0.108576 -10.359222 5.054489 12.462016 29.723764 6.577649 6.596666 22.373222 4.061719 4.132168 -8.457032 0.000000 0.000000 19.387386 -6.224933 28.128899 -2.812533 -0.096698 -0.019508 -52.075340 13.464438 8.651760 -51.595524 -43.449966 5.220379 -10.139810 -50.517532 53.397324 2.792995 0.077173 -0.019521 55.396282 -17.857386 20.287621 48.946949 28.408138 7.274979 -14.572463 71.465317 50.518761 -1.063760 3.881166 10.324943 12.025169 6.821006 3.491070 6.143404 -4.845988 -7.058245 14.739077 -4.764668 -19.007845 6.013091 3.002242 -1.599520 -10.429028 -5.200253 -4.254400 
0.117409 50.864799 -0.112073 -10.359222 5.054489 12.462016 29.723764 6.577649 6.596666 22.461100 4.051929 4.141907 -8.457032 0.000000 0.000000 19.298239 -6.229448 28.050304 -2.812533 -0.096698 -0.019508 -52.070938 13.372936 8.657847 -51.595524 -43.449966 5.220379 -10.139810 -50.517532 53.397324 2.792995 0.077173 -0.019521 55.396282 -17.857386 20.287621 48.946949 28.408138 7.274979 -14.662494 71.462128 50.530483 -1.053158 3.780160 10.328346 12.034157 6.810886 3.558912 6.142341 -4.819018 -7.142348 14.835521 -4.764731 -19.006105 5.990063 2.805283 -1.597919 -10.466976 -5.174745 -4.147118 
0.121002 50.867928 -0.115567 -10.359222 5.054489 12.462016 29.723764 6.577649 6.596666 22.548988 4.051929 4.141907 -8.457032 0.000000 0.000000 19.213709 -6.225327 27.971710 -2.812533 -0.096698 -0.019508 -52.065567 13.287197 8.658329 -51.595524 -43.449966 5.220379 -10.139810 -50.517532 53.397324 2.792995 0.077173 -0.019521 55.396282 -17.857386 20.287621 48.946949 28.408138 7.274979 -14.780610 71.456497 50.511444 -1.044363 3.688573 10.332541 12.052919 6.803350 3.627195 6.140236 -4.780748 -7.222097 14.942243 -4.764893 -18.984310 5.968845 2.620417 -1.634847 -10.512626 -5.139735 -4.024972 
0.128231 50.870815 -0.115403 -10.359222 5.054489 12.462016 29.723764 6.577649 6.596666 22.555214 4.051474 4.229578 -8.457032 0.000000 0.000000 19.122803 -6.138175 27.828655 -2.812533 -0.096698 -0.019508 -52.067776 13.281432 8.568507 -51.595524 -43.449966 5.220379 -10.139810 -50.517532 53.397324 2.792995 0.077173 -0.019521 55.389587 -17.766010 20.294592 48.946949 28.408138 7.274979 -14.780610 71.456497 50.511444 -1.044362 3.688574 10.332541 12.052919 6.803349 3.627196 6.234457 -4.799623 -7.231910 14.835523 -4.764734 -19.006105 5.979455 2.619272 -1.614761 -10.502989 -5.182295 -3.969495 
0.135460 50.873699 -0.115238 -10.359222 5.054489 12.462016 29.723764 6.577649 6.596666 22.551674 4.051010 4.317937 -8.457032 0.000000 0.000000 19.037680 -6.059930 27.677013 -2.812533 -0.096698 -0.019508 -52.078556 13.284815 8.482282 -51.595524 -43.449966 5.220379 -10.139810 -50.517532 53.397324 2.792995 0.077173 -0.019521 55.390518 -17.682999 20.290352 48.946949 28.408138 7.274979 -14.780610 71.456497 50.511444 -1.044362 3.688574 10.332541 12.052919 6.803349 3.627196 6.321449 -4.842206 -7.229510 14.739076 -4.764666 -19.007843 6.002115 2.640382 -1.612787 -10.488403 -5.229899 -3.873355 
0.143345 50.876305 -0.112386 -10.272680 5.036928 12.383347 29.723764 6.577649 6.596666 22.543743 3.973260 4.288021 -8.457032 0.000000 0.000000 18.859383 -6.063705 27.608107 -2.812533 -0.096698 -0.019508 -52.073029 13.199110 8.480494 -51.595524 -43.449966 5.220379 -10.139810 -50.517532 53.397324 2.792995 0.077173 -0.019521 55.390518 -17.682999 20.290352 48.946949 28.408138 7.274979 -14.780610 71.456497 50.511444 -1.229983 3.718285 10.330669 12.162415 6.782231 3.558897 6.310751 -4.737915 -7.207322 14.641492 -4.764633 -18.910337 6.057459 2.678035 -1.520086 -10.527044 -5.337322 -3.959829 
0.151225 50.878906 -0.109532 -10.189033 5.009990 12.294097 29.723764 6.577649 6.596666 22.544994 3.895551 4.248374 -8.457032 0.000000 0.000000 18.672361 -6.068009 27.529505 -2.812533 -0.096698 -0.019508 -52.067432 13.113397 8.480904 -51.595524 -43.449966 5.220379 -10.139810 -50.517532 53.397324 2.792995 0.077173 -0.019521 55.390518 -17.682999 20.290352 48.946949 28.408138 7.274979 -14.780610 71.456497 50.511444 -1.414288 3.742946 10.328251 12.263421 6.754522 3.479876 6.307977 -4.654216 -7.181587 14.554104 -4.765485 -18.812834 6.123738 2.717199 -1.455944 -10.561688 -5.425750 -4.005668 
0.160735 50.881428 -0.105596 -10.189033 5.009990 12.294097 29.723764 6.577649 6.596666 22.544994 3.895551 4.248374 -8.457032 0.000000 0.000000 18.591112 -5.980661 27.377905 -2.812533 -0.096698 -0.019508 -52.067432 13.113397 8.480904 -51.595524 -43.449966 5.220379 -10.139810 -50.517532 53.397324 2.792995 0.077173 -0.019521 55.386650 -17.594786 20.202370 48.905182 28.347303 7.333187 -14.662494 71.462128 50.530483 -1.414288 3.742948 10.328251 12.263421 6.754523 3.479876 6.245797 -4.693033 -7.197510 14.504593 -4.853201 -18.930857 6.126001 2.698776 -1.261449 -10.546292 -5.296268 -3.919349 
0.170241 50.883942 -0.101657 -10.189033 5.009990 12.294097 29.723764 6.577649 6.596666 22.544994 3.895551 4.248374 -8.457032 0.000000 0.000000 18.499611 -5.893016 27.225346 -2.812533 -0.096698 -0.019508 -52.067432 13.113397 8.480904 -51.595524 -43.449966 5.220379 -10.139810 -50.517532 53.397324 2.792995 0.077173 -0.019521 55.384617 -17.501614 20.122540 48.865608 28.288744 7.381177 -14.572463 71.465317 50.518761 -1.414288 3.742946 10.328251 12.263420 6.754520 3.479877 6.198724 -4.740309 -7.185079 14.463732 -4.920778 -19.054552 6.121363 2.670956 -1.058094 -10.522730 -5.155750 -3.838743 
0.178435 50.886429 -0.097424 -10.085663 5.076593 12.305546 29.723764 6.577649 6.596666 22.542370 3.807611 4.306828 -8.457032 0.000000 0.000000 18.499611 -5.893016 27.225346 -2.812533 -0.096698 -0.019508 -52.150768 13.107511 8.386794 -51.595524 -43.449966 5.220379 -10.139810 -50.517532 53.397324 2.792995 0.077173 -0.019521 55.384617 -17.501614 20.122540 48.865608 28.288744 7.381177 -14.572463 71.465317 50.518761 -1.414263 3.723250 10.415511 12.204792 6.686170 3.570294 6.093166 -4.876513 -7.061702 14.463730 -4.920775 -19.054552 6.148349 2.640619 -1.154977 -10.486677 -5.006330 -3.882271 
